<svg xmlns="http://www.w3.org/2000/svg" viewBox="0 0 64 64">
  <defs>
    <linearGradient id="bg" x1="0" y1="0" x2="1" y2="1">
      <stop offset="0" stop-color="#f472b6"/>
      <stop offset="0.55" stop-color="#fb8fb0"/>
      <stop offset="1" stop-color="#c084fc"/>
    </linearGradient>
    <linearGradient id="gloss" x1="0" y1="0" x2="0" y2="1">
      <stop offset="0" stop-color="#fff" stop-opacity="0.45"/>
      <stop offset="1" stop-color="#fff" stop-opacity="0"/>
    </linearGradient>
  </defs>
  <rect width="64" height="64" rx="18" fill="url(#bg)"/>
  <rect x="6" y="4" width="52" height="26" rx="13" fill="url(#gloss)"/>
  <!-- Piggy bank glyph from Lucide (ISC license) -->
  <g transform="translate(11 11) scale(1.75)" fill="none" stroke="#fff" stroke-width="2" stroke-linecap="round" stroke-linejoin="round">
    <path d="M11 17h3v2a1 1 0 0 0 1 1h2a1 1 0 0 0 1-1v-3a3.16 3.16 0 0 0 2-2h1a1 1 0 0 0 1-1v-2a1 1 0 0 0-1-1h-1a5 5 0 0 0-2-4V3a4 4 0 0 0-3.2 1.6l-.3.4H11a6 6 0 0 0-6 6v1a5 5 0 0 0 2 4v3a1 1 0 0 0 1 1h2a1 1 0 0 0 1-1z"/>
    <path d="M16 10h.01"/>
    <path d="M2 8v1a2 2 0 0 0 2 2h1"/>
  </g>
</svg>
